<?xml version="1.0" encoding="iso-8859-1"?>
<!-- Generator: Adobe Illustrator 16.0.0, SVG Export Plug-In . SVG Version: 6.00 Build 0)  -->
<!DOCTYPE svg PUBLIC "-//W3C//DTD SVG 1.1//EN" "http://www.w3.org/Graphics/SVG/1.1/DTD/svg11.dtd">
<svg version="1.1" id="Capa_1" xmlns="http://www.w3.org/2000/svg" xmlns:xlink="http://www.w3.org/1999/xlink" x="0px" y="0px"
	 width="612px" height="612px" viewBox="0 0 612 612" style="enable-background:new 0 0 612 612;" xml:space="preserve">
<g>
	<g id="_x33__9_">
		<g>
			<path d="M535.5,95.625H420.75v-38.25c0-21.133-17.117-38.25-38.25-38.25h-153c-21.133,0-38.25,17.136-38.25,38.25v38.25H76.5
				c-42.247,0-76.5,34.253-76.5,76.5v95.625h612v-95.625C612,129.878,577.747,95.625,535.5,95.625z M382.5,95.625h-153V76.5
				c0-10.557,8.568-19.125,19.125-19.125h114.75c10.557,0,19.125,8.568,19.125,19.125V95.625z M382.5,325.125
				c0,42.247-34.253,76.5-76.5,76.5s-76.5-34.253-76.5-76.5c0-6.655,1.033-13.024,2.697-19.125H0v210.375
				c0,42.247,34.253,76.5,76.5,76.5h459c42.247,0,76.5-34.253,76.5-76.5V306H379.804C381.467,312.12,382.5,318.47,382.5,325.125z
				 M344.25,325.125c0-7-2.027-13.483-5.298-19.125h-65.885c-3.29,5.642-5.317,12.125-5.317,19.125
				c0,21.133,17.117,38.25,38.25,38.25C327.133,363.375,344.25,346.258,344.25,325.125z"/>
		</g>
	</g>
</g>
<g>
</g>
<g>
</g>
<g>
</g>
<g>
</g>
<g>
</g>
<g>
</g>
<g>
</g>
<g>
</g>
<g>
</g>
<g>
</g>
<g>
</g>
<g>
</g>
<g>
</g>
<g>
</g>
<g>
</g>
</svg>
